# xmcd
#
# Track frame offsets:
#	150
#	14203
#	28041
#	42014
#	56112
#	70414
#	84535
#	99884
#	114238
#	129234
#	141126
#	154676
#	167892
#	180820
#	192704
#	205479
#	217925
#	230029
#	243308
#	255916
#	270378
#	284624
#	299097
#	313570
#	326146
#
# Disc length: 4512 seconds
#
# Revision: 0
# Processed by: cddbd v1.5.1PL0 Copyright (c) Steve Scherf et al.
# Submitted via: audiograbber 1.81.01
#
DISCID=73119e19
DTITLE=Big Joe Williams - Po' Joe
DYEAR=2002
DGENRE=Blues
TTITLE0=Little Leg Woman
TTITLE1=Somebody's Been Borrowing That Stuff
TTITLE2=Providence Help The Poor People
TTITLE3=49 Highway Blues
TTITLE4=My Grey Pony
TTITLE5=Stepfather Blues
TTITLE6=Baby Please Don't Go
TTITLE7=Stack O'dollars
TTITLE8=Wild Cow Blues
TTITLE9=Worried Man Blues
TTITLE10=I Know You're Gonna Miss Me
TTITLE11=Rootin' Groundhog
TTITLE12=Brother James
TTITLE13=I Won't Be In Hard Luck No More
TTITLE14=Crawlin' Kingsnake
TTITLE15=I'm Getting Wild About Her
TTITLE16=Peach Orchard Mama
TTITLE17=Meet Me Around The Corner
TTITLE18=Please Don't Go
TTITLE19=Highway 49
TTITLE20=Someday Baby
TTITLE21=Break 'Em On Down
TTITLE22=Somebody's Been Worryin' Me
TTITLE23=Vitamin A
TTITLE24=His Spirit Lives On
EXTD=Walle upped this
EXTT0=
EXTT1=
EXTT2=
EXTT3=
EXTT4=
EXTT5=
EXTT6=
EXTT7=
EXTT8=
EXTT9=
EXTT10=
EXTT11=
EXTT12=
EXTT13=
EXTT14=
EXTT15=
EXTT16=
EXTT17=
EXTT18=
EXTT19=
EXTT20=
EXTT21=
EXTT22=
EXTT23=
EXTT24=
PLAYORDER=
